<svg width="49" height="16" viewBox="0 0 49 16" fill="none" xmlns="http://www.w3.org/2000/svg">
<path d="M4.2462 15.0049C4.2275 15.101 4.18348 15.1835 4.11414 15.2522C4.04747 15.3071 3.95814 15.3346 3.84616 15.3346H0.822723C0.724741 15.3346 0.646098 15.3071 0.586795 15.2522C0.544159 15.1835 0.53219 15.101 0.550885 15.0049L3.31519 0.783732C3.33656 0.67381 3.38058 0.591369 3.44725 0.536408C3.52792 0.481447 3.61725 0.453967 3.71523 0.453967H13.8563C13.9683 0.453967 14.047 0.481447 14.0923 0.536408C14.1376 0.591369 14.1495 0.67381 14.1282 0.783732L13.5913 3.54552C13.5726 3.6417 13.5286 3.72414 13.4593 3.79284C13.3926 3.8478 13.3033 3.87528 13.1913 3.87528H6.40957L5.82866 6.86378H11.6026C11.7146 6.86378 11.7932 6.89126 11.8385 6.94622C11.8838 7.00118 11.8958 7.08362 11.8744 7.19355L11.3376 9.95533C11.3189 10.0515 11.2749 10.134 11.2055 10.2027C11.1389 10.2576 11.0495 10.2851 10.9376 10.2851H5.16363L4.2462 15.0049ZM18.7143 15.6438C17.2866 15.6438 16.1235 15.3621 15.2252 14.7988C14.3296 14.2217 13.758 13.4179 13.5104 12.3874C13.4984 12.3049 13.4951 12.2499 13.5004 12.2225C13.5218 12.1125 13.6091 12.0232 13.7625 11.9545L16.4764 10.7385L16.6524 10.6973C16.7643 10.6973 16.8516 10.7523 16.9142 10.8622C17.16 11.3981 17.4758 11.7897 17.8617 12.037C18.2642 12.2706 18.7594 12.3874 19.3473 12.3874C19.9772 12.3874 20.4814 12.2774 20.8601 12.0576C21.2554 11.824 21.4892 11.5217 21.5613 11.1507C21.6414 10.7385 21.5249 10.4019 21.2117 10.1408C20.8985 9.87976 20.3687 9.65305 19.6222 9.46068C18.6652 9.19962 17.8477 8.9042 17.17 8.57444C16.4949 8.23093 15.9668 7.74316 15.5858 7.11111C15.2074 6.46531 15.1157 5.6409 15.3107 4.63787C15.4682 3.82719 15.8308 3.07835 16.3982 2.39134C16.9797 1.70433 17.7291 1.16159 18.6463 0.763122C19.5803 0.350915 20.6212 0.144812 21.769 0.144812C23.1687 0.144812 24.2784 0.412746 25.0981 0.948615C25.9317 1.48448 26.4774 2.20585 26.735 3.1127C26.747 3.19514 26.7517 3.24323 26.749 3.25697C26.7303 3.35315 26.6416 3.44934 26.4829 3.54552L23.7771 4.72031C23.6991 4.76153 23.6321 4.78214 23.5761 4.78214C23.4781 4.78214 23.4048 4.72718 23.3562 4.61725C23.1283 4.20505 22.8302 3.90276 22.4616 3.7104C22.1098 3.5043 21.6679 3.40124 21.136 3.40124C20.5901 3.40124 20.1501 3.5043 19.8161 3.7104C19.4988 3.90276 19.3094 4.15696 19.248 4.47298C19.1812 4.81649 19.2678 5.09129 19.5077 5.2974C19.7502 5.48976 20.2041 5.67525 20.8692 5.85387C21.9302 6.15616 22.8223 6.49967 23.5454 6.88439C24.2711 7.25538 24.8275 7.77751 25.2145 8.45078C25.6155 9.12405 25.7172 9.96907 25.5196 10.9858C25.354 11.8377 24.9708 12.6209 24.37 13.3354C23.7719 14.0362 22.9835 14.5995 22.0049 15.0255C21.0429 15.4377 19.9461 15.6438 18.7143 15.6438ZM33.3348 15.0667C33.2441 15.2453 33.1007 15.3346 32.9048 15.3346H29.3354C29.1395 15.3346 29.0392 15.2384 29.0346 15.0461L28.6075 0.824953L28.6275 0.721901C28.6622 0.543278 28.7776 0.453967 28.9735 0.453967H32.1859C32.3959 0.453967 32.5032 0.550148 32.5078 0.742512L32.5355 10.4294L36.4375 2.45317C36.5282 2.27455 36.6715 2.18524 36.8675 2.18524H39.597C39.7929 2.18524 39.9015 2.27455 39.9228 2.45317L40.766 10.4294L44.6435 0.742512C44.7229 0.550148 44.8676 0.453967 45.0775 0.453967H47.975C48.087 0.453967 48.1643 0.488317 48.2069 0.557019C48.2496 0.62572 48.2462 0.715031 48.1968 0.824953L42.2411 15.0461C42.1617 15.2384 42.0241 15.3346 41.8281 15.3346H38.2588C38.0628 15.3346 37.9542 15.2453 37.9329 15.0667L37.1146 7.5027L33.3348 15.0667Z" fill="#EA1D2C"/>
</svg>
